<svg width="260" height="260" viewBox="0 0 260 260" fill="none" xmlns="http://www.w3.org/2000/svg">
<rect width="260" height="260" fill="white"/>
<path fill-rule="evenodd" clip-rule="evenodd" d="M152.532 43.5291C139.735 49.0186 121.265 49.0186 108.468 43.5291C98.0703 39.069 86.44 38.6554 75.7088 43.329C53.0624 53.1917 42.905 82.0139 52.7617 108.014C52.7638 108.02 52.7637 108.026 52.7614 108.032V108.032L55.8373 114.728C66.2348 137.365 74.0722 161.094 79.2032 185.475L84.0842 208.667C85.7733 215.334 91.7423 220 98.5823 220C105.928 220 112.188 214.635 113.354 207.34L120.235 164.293C121.046 159.223 125.395 155.495 130.5 155.495C135.605 155.495 139.955 159.223 140.765 164.293L147.646 207.34C148.812 214.635 155.072 220 162.418 220C169.258 220 175.227 215.334 176.916 208.667L181.797 185.475C186.928 161.094 194.765 137.365 205.163 114.728L208.239 108.032V108.032C208.236 108.026 208.236 108.02 208.238 108.014C218.095 82.0138 207.938 53.1917 185.291 43.329C174.56 38.6553 162.93 39.0689 152.532 43.5291Z" fill="#7FD2C8"/>
</svg>
