<svg width="260" height="260" viewBox="0 0 260 260" fill="none" xmlns="http://www.w3.org/2000/svg">
<path fill-rule="evenodd" clip-rule="evenodd" d="M161.899 5.09764C143.37 13.0269 116.629 13.0268 98.1007 5.09759C83.0465 -1.34482 66.2077 -1.94225 50.6703 4.80852C17.8817 19.0547 3.17541 60.6867 17.4463 98.2422C17.4495 98.2505 17.4493 98.2598 17.4459 98.268L21.8993 107.941C36.9535 140.638 48.3008 174.914 55.7298 210.13L62.7967 243.63C65.2424 253.26 73.8846 260 83.7879 260C94.424 260 103.487 252.251 105.175 241.713L115.138 179.535C116.311 172.212 122.609 166.827 130 166.827C137.391 166.827 143.689 172.212 144.862 179.535L154.825 241.713C156.513 252.251 165.576 260 176.212 260C186.115 260 194.758 253.26 197.203 243.63L204.27 210.13C211.699 174.914 223.046 140.638 238.101 107.941L242.554 98.268C242.551 98.2598 242.551 98.2505 242.554 98.2422C256.825 60.6867 242.118 19.0547 209.33 4.80852C193.792 -1.94232 176.953 -1.34486 161.899 5.09764Z" fill="#7FD2C8"/>
</svg>
