<svg width="260" height="260" viewBox="0 0 260 260" fill="none" xmlns="http://www.w3.org/2000/svg">
<path fill-rule="evenodd" clip-rule="evenodd" d="M161.729 5.09764C143.222 13.0269 116.511 13.0268 98.0034 5.09759C82.9663 -1.34482 66.1464 -1.94225 50.6267 4.80852C17.8751 19.0547 3.18538 60.6867 17.4402 98.2422C17.4433 98.2505 17.4432 98.2598 17.4397 98.268V98.268L21.8882 107.941C36.9253 140.638 48.2598 174.914 55.6804 210.13L62.7393 243.63C65.1822 253.26 73.8147 260 83.7068 260C94.3308 260 103.383 252.251 105.07 241.713L115.021 179.535C116.194 172.212 122.484 166.827 129.867 166.827C137.25 166.827 143.54 172.212 144.712 179.535L154.663 241.713C156.35 252.251 165.403 260 176.027 260C185.919 260 194.551 253.26 196.994 243.63L204.053 210.13C211.474 174.914 222.808 140.638 237.845 107.941L242.294 98.268V98.268C242.29 98.2598 242.29 98.2505 242.293 98.2422C256.548 60.6867 241.858 19.0547 209.107 4.80852C193.587 -1.94232 176.767 -1.34486 161.729 5.09764Z" fill="white"/>
</svg>
