<svg width="260" height="260" viewBox="0 0 260 260" fill="none" xmlns="http://www.w3.org/2000/svg">
<rect width="260" height="260" fill="#757575"/>
<path fill-rule="evenodd" clip-rule="evenodd" d="M154.176 33.9213C139.94 40.0207 119.393 40.0206 105.156 33.9212C93.5894 28.9655 80.6511 28.506 68.7128 33.6989C43.5193 44.6575 32.2195 76.6821 43.1848 105.571C43.1872 105.577 43.1871 105.584 43.1844 105.591V105.591L46.6063 113.031C58.1733 138.183 66.8921 164.549 72.6003 191.639L78.0303 217.408C79.9094 224.816 86.5498 230 94.159 230C102.331 230 109.295 224.039 110.592 215.933L118.247 168.104C119.149 162.47 123.988 158.328 129.667 158.328C135.346 158.328 140.185 162.471 141.086 168.104L148.741 215.933C150.039 224.039 157.002 230 165.174 230C172.784 230 179.424 224.816 181.303 217.408L186.733 191.639C192.441 164.549 201.16 138.183 212.727 113.031L216.149 105.591V105.591C216.146 105.584 216.146 105.577 216.149 105.571C227.114 76.682 215.814 44.6575 190.621 33.6989C178.682 28.5059 165.744 28.9655 154.176 33.9213Z" fill="white"/>
</svg>
